<svg version="1" xmlns="http://www.w3.org/2000/svg" width="1365.333" height="1365.333" viewBox="0 0 1024.000000 1024.000000"><path d="M498.5 23l-23 23 228 .2c255.5.3 231.7-.4 244.2 7.7 7 4.5 13.3 13.2 16.1 22 1.6 5.3 1.7 29.6 1.7 432.1v426.5l-2.3 7c-2.2 7.1-6.6 14.5-9 15.3-.7.2.3-2.5 2.2-6 1.9-3.5 4.3-9.2 5.3-12.8 1.7-6.2 1.8-25.9 1.8-427 0-346.1-.2-421.6-1.3-426.9-3.8-18.3-14.4-29.4-32.7-34.2-4-1-49.3-1.4-230.5-1.6L473.6 48l-92.3 92.2-92.3 92.3V137h-17c-10.7 0-17 .4-17 1s6 1 16 1h16v95.5l-17 17-17 17v52.4c0 34.7-.3 52.2-1 51.5-.6-.6-1.1-19.8-1.2-51.4l-.3-50.5-95.3 95L60 460.4V280c0-110.1.4-184.1 1-189.8 1.1-10.8 3.8-19 8.1-25.1 3.4-4.9 3.1-6.6-.7-3-3.2 3-7.9 12.9-9.3 19.7-.8 3.8-1.1 59.8-1.1 193v187.7l-29 29-29 29V1024h1024V0H521.5l-23 23zm253.1 140.1c17.3 3.3 29.9 16.1 36.9 37.4 10.1 31 10.8 94.5 1.4 129.5-2.1 8.1-8.7 23-10.1 23-1.2 0-1.1-.6 2.2-7 9.5-18.8 14.1-55 12-94.1-3-55.5-16.2-81-44.9-87-8.5-1.8-27.4-.7-34.1 1.9-6 2.4-7 2.6-7 1.4 0-1.6 13.2-5.5 20.8-6.1 8.6-.7 15.2-.4 22.8 1zm-84.6.9c0 .5-.4 1-1 1-.5 0-1-.5-1-1 0-.6.5-1 1-1 .6 0 1 .4 1 1zm-3 4c0 .5-.4 1-1 1-.5 0-1-.5-1-1 0-.6.5-1 1-1 .6 0 1 .4 1 1zm43 2c0 .5-.4 1-1 1-.5 0-1-.5-1-1 0-.6.5-1 1-1 .6 0 1 .4 1 1zm-45 .5c0 1.2-2.4 5.5-3.2 5.5-1.1 0-1-.4.4-3.5.9-2.1 2.8-3.5 2.8-2zm42 1.5c0 .5-.4 1-1 1-.5 0-1-.5-1-1 0-.6.5-1 1-1 .6 0 1 .4 1 1zm-46.6 7.2c-.3 1.3-1.4 3.9-2.4 5.8-8.1 16.1-14 51.5-14 83.6 0 51.9 11.5 90.1 34 112.4 9 9 17.3 14 29.6 18 23.4 7.5 52.7 5.9 72.2-3.9 6.7-3.4 7.2-3.5 7.2-2.3 0 .5-3.5 2.5-7.7 4.5-21.2 9.9-49.9 11.3-73.7 3.7-12.3-4-20.6-9-29.6-18-12-11.9-20.3-26.9-26.3-48-10.5-36.2-10-100.3.9-135 3.3-10.5 8.5-23 9.7-23 .4 0 .5 1 .1 2.2zm56.6 89.4V292h21.9c13.6 0 22.2.4 22.6 1 .4.7-7.5 1-22.9 1H712v-25.1c0-16.4.3-24.8 1-24.4.6.4 1 9.5 1 24.1zm65 86.4c0 .5-.4 1-1 1-.5 0-1-.5-1-1 0-.6.5-1 1-1 .6 0 1 .4 1 1zm-2 3c0 .5-.4 1-1 1-.5 0-1-.5-1-1 0-.6.5-1 1-1 .6 0 1 .4 1 1zm-609 29.1V400h93.9c61.6 0 94.2.3 94.6 1 .4.7-31.5 1-94.9 1H166v-14.6c0-9.4.4-14.3 1-13.9.6.4 1 6 1 13.6zm629-4.1c0 .5-.4 1-1 1-.5 0-1-.5-1-1 0-.6.5-1 1-1 .6 0 1 .4 1 1zm-7 6c0 .5-.4 1-1 1-.5 0-1-.5-1-1 0-.6.5-1 1-1 .6 0 1 .4 1 1zm-3 2c0 .5-.4 1-1 1-.5 0-1-.5-1-1 0-.6.5-1 1-1 .6 0 1 .4 1 1zm-52 201.7c0 1.4-1.9 3.8-2.5 3.2-.8-.8.5-3.9 1.6-3.9.5 0 .9.3.9.7zm-4 6.3c0 .5-.4 1-1 1-.5 0-1-.5-1-1 0-.6.5-1 1-1 .6 0 1 .4 1 1zm-459.4 17.1c17.3 3.3 29.9 16.1 36.9 37.4 10.1 31 10.8 94.5 1.4 129.5-2.1 8.1-8.7 23-10.1 23-1.2 0-1.1-.6 2.2-7 9.5-18.8 14.1-55 12-94.1-3-55.5-16.2-81-44.9-87-8.5-1.8-27.4-.7-34.1 1.9-6 2.4-7 2.6-7 1.4 0-1.6 13.2-5.5 20.8-6.1 8.6-.7 15.2-.4 22.8 1zm-84.6.9c0 .5-.4 1-1 1-.5 0-1-.5-1-1 0-.6.5-1 1-1 .6 0 1 .4 1 1zm-3 4c0 .5-.4 1-1 1-.5 0-1-.5-1-1 0-.6.5-1 1-1 .6 0 1 .4 1 1zm43 2c0 .5-.4 1-1 1-.5 0-1-.5-1-1 0-.6.5-1 1-1 .6 0 1 .4 1 1zm-45 .5c0 1.2-2.4 5.5-3.2 5.5-1.1 0-1-.4.4-3.5.9-2.1 2.8-3.5 2.8-2zm42 1.5c0 .5-.4 1-1 1-.5 0-1-.5-1-1 0-.6.5-1 1-1 .6 0 1 .4 1 1zm509 101.6c0 66.1-.3 99.3-1 98.9-1.4-.9-1.4-198.5 0-198.5.7 0 1 33.9 1 99.6zm-555.6-94.4c-.3 1.3-1.4 3.9-2.4 5.8-8.1 16.1-14 51.5-14 83.6 0 51.9 11.5 90.1 34 112.4 9 9 17.3 14 29.6 18 23.4 7.5 52.7 5.9 72.2-3.9 6.7-3.4 7.2-3.5 7.2-2.3 0 .5-3.5 2.5-7.7 4.5-21.2 9.9-49.9 11.3-73.7 3.7-12.3-4-20.6-9-29.6-18-12-11.9-20.3-26.9-26.3-48-10.5-36.2-10-100.3.9-135 3.3-10.5 8.5-23 9.7-23 .4 0 .5 1 .1 2.2zM646 649.6V663h3.1c12.7 0 38.5-6.4 52.8-13.1 9.2-4.3 9.1-4.3 9.1-3 0 1.4-17 8.8-27.7 12-10.5 3.1-27.8 6.1-35.2 6.1H644v-15.1c0-9.7.4-14.8 1-14.4.6.4 1 6.2 1 14.1zm79-12.6c0 .5-.4 1-1 1-.5 0-1-.5-1-1 0-.6.5-1 1-1 .6 0 1 .4 1 1zm-5 4c0 .5-.4 1-1 1-.5 0-1-.5-1-1 0-.6.5-1 1-1 .6 0 1 .4 1 1zm-4 2.9c0 1.1-3.1 2.4-3.9 1.6-.3-.3.1-1 .9-1.5 1.9-1.2 3-1.2 3-.1zm-482 77.7V745h21.9c13.6 0 22.2.4 22.6 1 .4.7-7.5 1-22.9 1H232v-25.1c0-16.4.3-24.8 1-24.4.6.4 1 9.5 1 24.1zm65 86.4c0 .5-.4 1-1 1-.5 0-1-.5-1-1 0-.6.5-1 1-1 .6 0 1 .4 1 1zm-2 3c0 .5-.4 1-1 1-.5 0-1-.5-1-1 0-.6.5-1 1-1 .6 0 1 .4 1 1zm351 29.1V853h93.9c61.6 0 94.2.3 94.6 1 .4.7-31.5 1-94.9 1H646v-14.6c0-9.4.4-14.3 1-13.9.6.4 1 6 1 13.6zM317 836c0 .5-.4 1-1 1-.5 0-1-.5-1-1 0-.6.5-1 1-1 .6 0 1 .4 1 1zm-7 6c0 .5-.4 1-1 1-.5 0-1-.5-1-1 0-.6.5-1 1-1 .6 0 1 .4 1 1zm-3 2c0 .5-.4 1-1 1-.5 0-1-.5-1-1 0-.6.5-1 1-1 .6 0 1 .4 1 1z"/><path d="M237 158c0 .5.5 1 1 1 .6 0 1-.5 1-1 0-.6-.4-1-1-1-.5 0-1 .4-1 1zM233 161c0 .5.5 1 1 1 .6 0 1-.5 1-1 0-.6-.4-1-1-1-.5 0-1 .4-1 1zM230 163c0 .5.5 1 1 1 .6 0 1-.5 1-1 0-.6-.4-1-1-1-.5 0-1 .4-1 1zM226 165c-.8.5-1.2 1.2-.9 1.5.8.8 3.9-.5 3.9-1.6s-1.1-1.1-3 .1zM217.5 169.5c-12.1 5.8-29.3 10.2-43.6 11.2-5.4.4-8.6 1-8.2 1.6.7 1.1 14.3.3 22.5-1.4 13.1-2.7 35.8-10.9 35.8-13 0-1.3-.8-1-6.5 1.6zM249 177c0 .5.5 1 1 1 .6 0 1-.5 1-1 0-.6-.4-1-1-1-.5 0-1 .4-1 1zM246 181c0 .5.5 1 1 1 .6 0 1-.5 1-1 0-.6-.4-1-1-1-.5 0-1 .4-1 1z"/></svg>